<svg xmlns="http://www.w3.org/2000/svg" viewBox="0 0 769.3 283.29"><defs><style>.cls-1{fill:#16a37e;}.cls-2{fill:#333c3a;}</style></defs><g id="katman_2" data-name="katman 2"><g id="DUVAR"><g id="LWPOLYLINE"><path class="cls-1" d="M158.59,5.26A5.25,5.25,0,0,0,153.33,0h-21A5.26,5.26,0,0,0,127,5.26V72.12a5.26,5.26,0,0,0,5.26,5.26h21a5.25,5.25,0,0,0,5.26-5.26Z"/></g><g id="LWPOLYLINE-2" data-name="LWPOLYLINE"><path class="cls-1" d="M111.27,67.47V38.8c-1.66.51-3.3,1.07-4.94,1.67V69.52L122.61,85.8l3.5-3.5Z"/></g><g id="LWPOLYLINE-3" data-name="LWPOLYLINE"><path class="cls-1" d="M179.3,69.52v-29q-2.45-.9-4.94-1.67V67.47L159.53,82.3,163,85.8Z"/></g><g id="LWPOLYLINE-4" data-name="LWPOLYLINE"><polygon class="cls-1" points="160.51 108.08 160.51 89.59 153.04 82.13 142.82 82.13 132.59 82.13 125.13 89.59 125.13 108.08 135.7 118.65 142.82 118.65 149.94 118.65 160.51 108.08"/></g><g id="LWPOLYLINE-5" data-name="LWPOLYLINE"><path class="cls-1" d="M166.89,221.39V191a.24.24,0,0,0-.07-.18l-19.43-19.43V159.94l9.83-9.82a.29.29,0,0,0,.07-.18v-20a.28.28,0,0,0-.07-.17L151,123.47a.28.28,0,0,0-.17-.07H134.85a.29.29,0,0,0-.18.07l-6.25,6.26a.25.25,0,0,0-.08.17v20a.25.25,0,0,0,.08.18l9.82,9.82v11.45l-19.43,19.43a.24.24,0,0,0-.07.18v30.39l24.08,24.07Z"/></g><path class="cls-1" d="M119.63,113.2v-7.32l-30-30a9.87,9.87,0,1,0-3.49,3.49l28.53,28.53v7.33l12.43,12.42,3.49-3.49ZM81.15,75.82a4.94,4.94,0,1,1,4.93-4.93A4.94,4.94,0,0,1,81.15,75.82Z"/><path class="cls-1" d="M209.5,62.38A9.87,9.87,0,0,0,196,75.9l-30,30v7.32l-11,11,3.5,3.49,12.42-12.42v-7.33l28.53-28.53a9.87,9.87,0,1,0,10-17Zm-5,13.44a4.94,4.94,0,1,1,4.94-4.93A4.94,4.94,0,0,1,204.49,75.82Z"/><path class="cls-1" d="M181,2.93a5.28,5.28,0,0,0-6.48,3.66A5.57,5.57,0,0,0,174.36,8V30a5.27,5.27,0,0,0,3.6,5,111.22,111.22,0,0,1,76,110.45H212.69a9.87,9.87,0,0,0-19.12,0H177.64l-8-8h-9.91v4.94h7.87l8,8h18a9.87,9.87,0,0,0,19.12,0h40.92a111.25,111.25,0,0,1-34.86,71.44l-12.4-12.4a9.87,9.87,0,0,0-13.52-13.52l-20.44-20.45v-7.32l-14.84-14.83-3.49,3.49,13.39,13.39v7.32l21.89,21.89a9.87,9.87,0,0,0,13.52,13.52l12.2,12.2a111.25,111.25,0,0,1-144.49,0l12.2-12.2A9.88,9.88,0,0,0,96.3,199.37l21.89-21.89v-7.32l13.39-13.39-3.5-3.49-14.83,14.83v7.32L92.8,195.88A9.87,9.87,0,0,0,79.28,209.4L66.89,221.8A111.21,111.21,0,0,1,32,150.36H72.94a9.88,9.88,0,0,0,19.13,0h18l8-8h7.87v-4.94H116l-8,8H92.07a9.88,9.88,0,0,0-19.13,0H31.69A111.23,111.23,0,0,1,107.67,35a5.27,5.27,0,0,0,3.6-5V8A5.26,5.26,0,0,0,106,2.74a5.56,5.56,0,0,0-1.4.19,142.78,142.78,0,1,0,76.42,0Zm22.1,149.9a4.94,4.94,0,1,1,4.94-4.94A4.94,4.94,0,0,1,203.13,152.83Zm-5.28,56.49a4.94,4.94,0,1,1,4.93-4.93A4.94,4.94,0,0,1,197.85,209.32ZM87.79,199.45a4.94,4.94,0,1,1-4.94,4.94A4.94,4.94,0,0,1,87.79,199.45ZM82.5,143a4.94,4.94,0,1,1-4.94,4.94A4.94,4.94,0,0,1,82.5,143Z"/><g id="LWPOLYLINE-6" data-name="LWPOLYLINE"><path class="cls-2" d="M769.3,115.8V66H750.5V115.8a19,19,0,0,1-38,0V66h-18.8V115.8a37.8,37.8,0,1,0,75.59,0Z"/></g><g id="LWPOLYLINE-7" data-name="LWPOLYLINE"><rect class="cls-2" x="531.91" y="134.79" width="66.93" height="18.81"/></g><g id="LWPOLYLINE-8" data-name="LWPOLYLINE"><path class="cls-2" d="M644.61,66H531.91V84.83H645.14a25,25,0,1,1-1.06,50H621.79V99.66H602V153.6h42.59a43.79,43.79,0,0,0,0-87.58Z"/></g><g id="LWPOLYLINE-9" data-name="LWPOLYLINE"><rect class="cls-2" x="531.91" y="99.66" width="61.79" height="18.81"/></g><g id="LWPOLYLINE-10" data-name="LWPOLYLINE"><rect class="cls-2" x="329.29" y="134.79" width="66.93" height="18.81"/></g><g id="LWPOLYLINE-11" data-name="LWPOLYLINE"><rect class="cls-2" x="329.29" y="99.66" width="61.79" height="18.81"/></g><g id="LWPOLYLINE-12" data-name="LWPOLYLINE"><polygon class="cls-2" points="476.38 66.02 329.29 66.02 329.29 84.83 424.19 84.83 424.19 153.6 445.6 153.6 445.6 84.83 467.36 84.83 476.38 66.02"/></g><g id="LWPOLYLINE-13" data-name="LWPOLYLINE"><polygon class="cls-1" points="531.91 99.66 478.45 99.66 469.43 118.47 531.91 118.47 531.91 99.66"/></g><path class="cls-2" d="M345.82,201.78H333.41v11.51h13.83v3.45H329.29V184.82h17.24v3.46H333.41v10.09h12.41Z"/><path class="cls-2" d="M376.88,215.32a29.82,29.82,0,0,1-9.8,1.75c-4.83,0-8.81-1.23-11.94-4.21-2.74-2.65-4.45-6.91-4.45-11.89.05-9.52,6.58-16.48,17.29-16.48a19.75,19.75,0,0,1,7.95,1.47l-1,3.36a16.71,16.71,0,0,0-7.06-1.37c-7.76,0-12.83,4.83-12.83,12.83s4.88,12.88,12.31,12.88a13.29,13.29,0,0,0,5.49-.85v-9.52h-6.48V200h10.51Zm-14.11-37.74c.23,1.09,1,2.32,3.36,2.32s3.22-1.09,3.46-2.32H372c-.05,2.79-1.85,5-5.92,5s-5.73-2.18-5.82-5Z"/><path class="cls-2" d="M382.94,180.18a2.41,2.41,0,0,1,2.37-2.37,2.36,2.36,0,0,1,2.27,2.37,2.32,2.32,0,1,1-4.64,0Zm4.36,4.64v31.92h-4.12V184.82Z"/><path class="cls-2" d="M400.56,188.33h-9.71v-3.51h23.63v3.51h-9.76v28.41h-4.16Z"/><path class="cls-2" d="M417.79,180.18a2.41,2.41,0,0,1,2.37-2.37,2.36,2.36,0,0,1,2.27,2.37,2.32,2.32,0,1,1-4.64,0Zm4.36,4.64v31.92H418V184.82Z"/><path class="cls-2" d="M456.25,202.73c-.24-4.46-.52-9.81-.48-13.79h-.14c-1.09,3.74-2.41,7.72-4,12.13L446,216.55h-3.13l-5.16-15.2c-1.51-4.5-2.79-8.62-3.69-12.41h-.1c-.09,4-.33,9.33-.61,14.12l-.85,13.68h-3.94l2.23-31.92H436l5.44,15.44c1.33,3.93,2.42,7.44,3.22,10.75h.15c.8-3.22,1.94-6.72,3.36-10.75l5.68-15.44h5.26l2,31.92h-4Z"/><path class="cls-2" d="M481.58,188.33h-9.71v-3.51H495.5v3.51h-9.75v28.41h-4.17Z"/><path class="cls-2" d="M515.58,201.78H503.17v11.51H517v3.45H499.05V184.82h17.24v3.46H503.17v10.09h12.41Z"/><path class="cls-2" d="M522.35,184.82h4.12v15.39h.14c.86-1.23,1.71-2.36,2.51-3.4l9.76-12H544l-11.55,13.55,12.45,18.37H540L529.5,201.07l-3,3.5v12.17h-4.12Z"/><path class="cls-2" d="M548,216.74V184.82h4.5L562.74,201a91.44,91.44,0,0,1,5.74,10.37l.09,0c-.38-4.27-.47-8.15-.47-13.12V184.82H572v31.92h-4.17l-10.13-16.19a101.15,101.15,0,0,1-6-10.66l-.14.05c.24,4,.33,7.86.33,13.16v13.64Z"/><path class="cls-2" d="M606.46,200.45c0,11-6.68,16.81-14.83,16.81-8.43,0-14.35-6.53-14.35-16.19,0-10.14,6.3-16.77,14.83-16.77C600.82,184.3,606.46,191,606.46,200.45Zm-24.77.52c0,6.82,3.69,12.93,10.18,12.93s10.23-6,10.23-13.26c0-6.34-3.32-13-10.18-13S581.69,194,581.69,201Z"/><path class="cls-2" d="M611.8,184.82h4.12v28.47h13.64v3.45H611.8Z"/><path class="cls-2" d="M659.59,200.45c0,11-6.68,16.81-14.83,16.81-8.43,0-14.35-6.53-14.35-16.19,0-10.14,6.3-16.77,14.83-16.77C654,184.3,659.59,191,659.59,200.45Zm-24.77.52c0,6.82,3.69,12.93,10.18,12.93s10.23-6,10.23-13.26c0-6.34-3.32-13-10.18-13S634.82,194,634.82,201Z"/><path class="cls-2" d="M671.47,184.82h4.12v21.36c0,8.48-4.17,11.08-9.66,11.08a13.5,13.5,0,0,1-4.4-.75l.61-3.37a9.87,9.87,0,0,0,3.46.62c3.69,0,5.87-1.66,5.87-7.91Z"/><path class="cls-2" d="M682.22,180.18a2.41,2.41,0,0,1,2.37-2.37,2.36,2.36,0,0,1,2.27,2.37,2.32,2.32,0,1,1-4.64,0Zm4.36,4.64v31.92h-4.12V184.82Z"/><path class="cls-2" d="M693.77,184.82h4.12v28.47h13.64v3.45H693.77Z"/><path class="cls-2" d="M732.65,201.78H720.24v11.51h13.83v3.45H716.13V184.82h17.23v3.46H720.24v10.09h12.41Z"/><path class="cls-2" d="M739.42,185.25a42.68,42.68,0,0,1,7.91-.66c4.41,0,7.25.8,9.24,2.6a8,8,0,0,1,2.51,6.06,8.39,8.39,0,0,1-6,8.15v.14c2.46.85,3.93,3.13,4.69,6.44,1,4.45,1.8,7.53,2.46,8.76H756c-.52-.9-1.23-3.64-2.13-7.62-1-4.41-2.65-6.06-6.39-6.21h-3.89v13.83h-4.12Zm4.12,14.54h4.22c4.4,0,7.2-2.42,7.2-6.06,0-4.12-3-5.92-7.34-6a17,17,0,0,0-4.08.38Z"/><path class="cls-2" d="M764.66,180.18a2.41,2.41,0,0,1,2.37-2.37,2.36,2.36,0,0,1,2.27,2.37,2.32,2.32,0,1,1-4.64,0Zm4.36,4.64v31.92H764.9V184.82Z"/></g></g></svg>